<mxfile host="Electron" agent="Mozilla/5.0 (Windows NT 10.0; Win64; x64) AppleWebKit/537.36 (KHTML, like Gecko) draw.io/28.1.2 Chrome/138.0.7204.243 Electron/37.4.0 Safari/537.36" version="28.1.2">
  <diagram name="PÃ¡gina-1" id="w8aYkjsD9XJUr0oSVWD9">
    <mxGraphModel dx="1342" dy="1983" grid="1" gridSize="10" guides="1" tooltips="1" connect="1" arrows="1" fold="1" page="1" pageScale="1" pageWidth="827" pageHeight="1169" math="0" shadow="0">
      <root>
        <mxCell id="0" />
        <mxCell id="1" parent="0" />
        <mxCell id="dDWIR4z611aZGkq3z7B9-18" value="" style="ellipse;shape=cloud;whiteSpace=wrap;html=1;" vertex="1" parent="1">
          <mxGeometry x="220" y="-183.82" width="1030" height="800" as="geometry" />
        </mxCell>
        <mxCell id="dDWIR4z611aZGkq3z7B9-13" value="Trigger" style="edgeStyle=orthogonalEdgeStyle;rounded=0;orthogonalLoop=1;jettySize=auto;html=1;fontStyle=1" edge="1" parent="1" source="dDWIR4z611aZGkq3z7B9-2">
          <mxGeometry x="-0.007" relative="1" as="geometry">
            <mxPoint x="700" y="174.12" as="targetPoint" />
            <mxPoint as="offset" />
          </mxGeometry>
        </mxCell>
        <mxCell id="dDWIR4z611aZGkq3z7B9-2" value="" style="sketch=0;points=[[0,0,0],[0.25,0,0],[0.5,0,0],[0.75,0,0],[1,0,0],[0,1,0],[0.25,1,0],[0.5,1,0],[0.75,1,0],[1,1,0],[0,0.25,0],[0,0.5,0],[0,0.75,0],[1,0.25,0],[1,0.5,0],[1,0.75,0]];outlineConnect=0;fontColor=#232F3E;fillColor=#7AA116;strokeColor=#ffffff;dashed=0;verticalLabelPosition=bottom;verticalAlign=top;align=center;html=1;fontSize=12;fontStyle=0;aspect=fixed;shape=mxgraph.aws4.resourceIcon;resIcon=mxgraph.aws4.s3;" vertex="1" parent="1">
          <mxGeometry x="480" y="100" width="60" height="60" as="geometry" />
        </mxCell>
        <mxCell id="dDWIR4z611aZGkq3z7B9-3" value="" style="outlineConnect=0;dashed=0;verticalLabelPosition=bottom;verticalAlign=top;align=center;html=1;shape=mxgraph.aws3.lambda;fillColor=#F58534;gradientColor=none;" vertex="1" parent="1">
          <mxGeometry x="664" y="184.12" width="60" height="64.12" as="geometry" />
        </mxCell>
        <mxCell id="dDWIR4z611aZGkq3z7B9-17" style="edgeStyle=orthogonalEdgeStyle;rounded=0;orthogonalLoop=1;jettySize=auto;html=1;" edge="1" parent="1" source="dDWIR4z611aZGkq3z7B9-7" target="dDWIR4z611aZGkq3z7B9-11">
          <mxGeometry relative="1" as="geometry" />
        </mxCell>
        <mxCell id="dDWIR4z611aZGkq3z7B9-7" value="Actor" style="shape=umlActor;verticalLabelPosition=bottom;verticalAlign=top;html=1;outlineConnect=0;fillColor=#f8cecc;strokeColor=#b85450;" vertex="1" parent="1">
          <mxGeometry x="770" y="430" width="30" height="40" as="geometry" />
        </mxCell>
        <mxCell id="dDWIR4z611aZGkq3z7B9-25" style="edgeStyle=orthogonalEdgeStyle;rounded=0;orthogonalLoop=1;jettySize=auto;html=1;" edge="1" parent="1" source="dDWIR4z611aZGkq3z7B9-11" target="dDWIR4z611aZGkq3z7B9-2">
          <mxGeometry relative="1" as="geometry" />
        </mxCell>
        <mxCell id="dDWIR4z611aZGkq3z7B9-11" value="Arquivo" style="shape=document;whiteSpace=wrap;html=1;boundedLbl=1;" vertex="1" parent="1">
          <mxGeometry x="465" y="290" width="90" height="60" as="geometry" />
        </mxCell>
        <mxCell id="dDWIR4z611aZGkq3z7B9-14" value="dados processados" style="edgeStyle=orthogonalEdgeStyle;rounded=0;orthogonalLoop=1;jettySize=auto;html=1;entryX=0;entryY=0.5;entryDx=0;entryDy=0;entryPerimeter=0;align=center;fontStyle=1" edge="1" parent="1" source="dDWIR4z611aZGkq3z7B9-3">
          <mxGeometry relative="1" as="geometry">
            <mxPoint x="870" y="278.2399999999998" as="targetPoint" />
          </mxGeometry>
        </mxCell>
        <mxCell id="dDWIR4z611aZGkq3z7B9-15" value="Node.js, .NET core,&lt;div&gt;&amp;nbsp;Python&lt;/div&gt;" style="text;html=1;align=center;verticalAlign=middle;resizable=0;points=[];autosize=1;strokeColor=none;fillColor=none;fontStyle=1" vertex="1" parent="1">
          <mxGeometry x="540" y="196.18" width="130" height="40" as="geometry" />
        </mxCell>
        <mxCell id="dDWIR4z611aZGkq3z7B9-33" style="edgeStyle=orthogonalEdgeStyle;rounded=0;orthogonalLoop=1;jettySize=auto;html=1;" edge="1" parent="1" target="dDWIR4z611aZGkq3z7B9-20">
          <mxGeometry relative="1" as="geometry">
            <mxPoint x="980" y="65" as="sourcePoint" />
          </mxGeometry>
        </mxCell>
        <mxCell id="dDWIR4z611aZGkq3z7B9-20" value="" style="outlineConnect=0;dashed=0;verticalLabelPosition=bottom;verticalAlign=top;align=center;html=1;shape=mxgraph.aws3.volume;fillColor=#E05243;gradientColor=none;" vertex="1" parent="1">
          <mxGeometry x="1060" y="40" width="40" height="50" as="geometry" />
        </mxCell>
        <mxCell id="dDWIR4z611aZGkq3z7B9-23" value="AWS" style="text;html=1;align=center;verticalAlign=middle;whiteSpace=wrap;rounded=0;fontSize=27;" vertex="1" parent="1">
          <mxGeometry x="580" y="-20" width="90" height="30" as="geometry" />
        </mxCell>
        <mxCell id="dDWIR4z611aZGkq3z7B9-24" style="edgeStyle=orthogonalEdgeStyle;rounded=0;orthogonalLoop=1;jettySize=auto;html=1;exitX=1;exitY=0.3333333333333333;exitDx=0;exitDy=0;exitPerimeter=0;entryX=0.75;entryY=0.1;entryDx=0;entryDy=0;entryPerimeter=0;" edge="1" parent="1" source="dDWIR4z611aZGkq3z7B9-7" target="dDWIR4z611aZGkq3z7B9-7">
          <mxGeometry relative="1" as="geometry" />
        </mxCell>
        <mxCell id="dDWIR4z611aZGkq3z7B9-31" style="edgeStyle=orthogonalEdgeStyle;rounded=0;orthogonalLoop=1;jettySize=auto;html=1;exitX=0;exitY=0.5;exitDx=0;exitDy=0;exitPerimeter=0;entryX=0.01;entryY=0.1;entryDx=0;entryDy=0;entryPerimeter=0;" edge="1" parent="1" source="dDWIR4z611aZGkq3z7B9-20" target="dDWIR4z611aZGkq3z7B9-20">
          <mxGeometry relative="1" as="geometry" />
        </mxCell>
        <mxCell id="dDWIR4z611aZGkq3z7B9-35" value="" style="outlineConnect=0;dashed=0;verticalLabelPosition=bottom;verticalAlign=top;align=center;html=1;shape=mxgraph.aws3.ec2;fillColor=#F58534;gradientColor=none;" vertex="1" parent="1">
          <mxGeometry x="920" y="29.25" width="70" height="71.5" as="geometry" />
        </mxCell>
        <mxCell id="dDWIR4z611aZGkq3z7B9-36" value="" style="outlineConnect=0;dashed=0;verticalLabelPosition=bottom;verticalAlign=top;align=center;html=1;shape=mxgraph.aws3.db_on_instance;fillColor=#F58534;gradientColor=none;" vertex="1" parent="1">
          <mxGeometry x="860" y="280" width="60" height="60" as="geometry" />
        </mxCell>
      </root>
    </mxGraphModel>
  </diagram>
</mxfile>
